# xmcd
#
# Track frame offsets:
#	150
#	19590
#	39362
#	55230
#	71462
#	87350
#	107355
#	123642
#	143175
#	159152
#
# Disc length: 2345
#
# Revision: 2
# Processed by: cddbd v1.5.1PL0 Copyright (c) Steve Scherf et al.
# Submitted via: CDex 1.51
# Normalized: r1:TDELIM( - ),TSWAP
#
DISCID=7809270a
DTITLE=HU - Sampler Best of the Best 1012
DYEAR=1995
DGENRE=New Age
TTITLE0=Enya - Orinoco Flow
TTITLE1=Ottmar Liebert - Barcelona Nights
TTITLE2=David Lanz - Behind the Water Fall
TTITLE3=Mason Willians - Classical Gas
TTITLE4=Yanni - The Mermaid
TTITLE5=Raul Di Blassio - Verde Luz
TTITLE6=David Arkenstone - Ancient Legend
TTITLE7=Ray Lynch - Celestial Soda Pop
TTITLE8=Yanni - One Mans Dream
TTITLE9=Bebu Silvetti - Gitano
EXTD=YEAR: 1995
EXTT0=
EXTT1=
EXTT2=
EXTT3=
EXTT4=
EXTT5=
EXTT6=
EXTT7=
EXTT8=
EXTT9=
PLAYORDER=
